<?xml version="1.0" encoding="UTF-8"?>
<svg width="151px" height="58px" viewBox="0 0 151 58" version="1.1" xmlns="http://www.w3.org/2000/svg" xmlns:xlink="http://www.w3.org/1999/xlink">
    <title>Group</title>
    <g id="Symbols" stroke="none" stroke-width="1" fill="none" fill-rule="evenodd">
        <g id="1.Identity/BI---Black" transform="translate(1.000000, 0.000000)" fill="#050101">
            <g id="Group" transform="translate(-0.234700, 0.030700)">
                <path d="M5.848,29.7446 C5.848,31.6406 5.998,33.1956 6.311,34.4056 C6.627,35.6136 7.073,36.5706 7.639,37.2576 C8.215,37.9476 8.897,38.4236 9.696,38.6826 C10.493,38.9376 11.358,39.0676 12.311,39.0676 C13.805,39.0676 15.03,38.8006 15.983,38.2466 C16.938,37.6936 17.692,36.9696 18.252,36.0666 C18.815,35.1706 19.198,34.1466 19.412,33.0116 C19.633,31.8626 19.743,30.6996 19.743,29.5186 C19.743,27.8126 19.559,26.3806 19.198,25.2056 C18.83,24.0256 18.325,23.0816 17.676,22.3666 C17.032,21.6486 16.256,21.1316 15.356,20.8126 C14.471,20.4966 13.487,20.3416 12.422,20.3416 C11.475,20.3416 10.606,20.4626 9.793,20.7166 C8.989,20.9606 8.295,21.4396 7.709,22.1296 C7.11,22.8206 6.66,23.7716 6.334,24.9866 C6.006,26.2096 5.848,27.7936 5.848,29.7446 L5.848,29.7446 Z M25.055,38.3466 L29.483,38.3466 L29.483,40.3426 L19.743,40.3426 L19.743,37.3226 L19.621,37.3226 C19.114,38.0336 18.565,38.6336 17.957,39.1076 C17.358,39.5836 16.729,39.9716 16.055,40.2566 C15.387,40.5486 14.684,40.7586 13.961,40.8736 C13.231,40.9886 12.494,41.0496 11.744,41.0496 C9.877,41.0496 8.215,40.7526 6.76,40.1566 C5.301,39.5646 4.075,38.7626 3.073,37.7566 C2.069,36.7456 1.303,35.5666 0.782,34.2226 C0.26,32.8676 0,31.4226 0,29.8886 C0,28.2906 0.289,26.7836 0.86,25.3836 C1.424,23.9676 2.239,22.7506 3.293,21.7116 C4.34,20.6826 5.606,19.8646 7.073,19.2676 C8.537,18.6586 10.162,18.3676 11.948,18.3676 C13.686,18.3676 15.205,18.6636 16.496,19.2766 C17.795,19.8856 18.836,20.7376 19.621,21.8376 L19.743,21.8376 L19.743,6.0136 L15.022,6.0136 L15.022,4.0116 L25.055,4.0116 L25.055,38.3466 Z" id="Fill-1"></path>
                <path d="M53.8578,11.5347 L48.5788,25.6427 L58.9088,25.6427 L53.9598,11.5347 L53.8578,11.5347 Z M48.8308,38.3467 L48.8308,40.3427 L36.6528,40.3427 L36.6528,38.3467 L41.4008,38.3467 L54.4048,3.6317 L56.3788,3.6317 L68.5848,38.3467 L73.5358,38.3467 L73.5358,40.3427 L58.1568,40.3427 L58.1568,38.3467 L63.3598,38.3467 L59.6078,27.6647 L47.8068,27.6647 L43.8268,38.3467 L48.8308,38.3467 Z" id="Fill-3"></path>
                <polygon id="Fill-5" points="84.7426 38.3462 89.1686 38.3462 89.1686 40.3422 74.9986 40.3422 74.9986 38.3462 79.4266 38.3462 79.4266 6.0132 74.9986 6.0132 74.9986 4.0112 84.7426 4.0112"></polygon>
                <path d="M115.3168,29.647 C115.3168,27.738 115.1568,26.184 114.8438,24.979 C114.5258,23.768 114.0788,22.821 113.4948,22.129 C112.9168,21.44 112.2228,20.961 111.4208,20.716 C110.6158,20.462 109.7148,20.342 108.7308,20.342 C107.3988,20.342 106.2638,20.553 105.3398,20.989 C104.4108,21.424 103.6628,22.04 103.0848,22.836 C102.5008,23.639 102.0768,24.606 101.8168,25.734 C101.5458,26.848 101.4218,28.115 101.4218,29.518 C101.4218,30.947 101.5418,32.183 101.7838,33.211 C102.0278,34.256 102.3478,35.124 102.7448,35.828 C103.1328,36.54 103.5978,37.104 104.1118,37.53 C104.6308,37.96 105.1588,38.282 105.7118,38.504 C106.2468,38.73 106.7968,38.879 107.3308,38.955 C107.8738,39.032 108.3658,39.068 108.7958,39.068 C109.7368,39.068 110.6158,38.938 111.4068,38.692 C112.1978,38.445 112.8828,37.974 113.4618,37.284 C114.0528,36.594 114.5048,35.633 114.8268,34.406 C115.1488,33.179 115.3168,31.594 115.3168,29.647 L115.3168,29.647 Z M100.2368,40.342 L96.0998,40.342 L96.0998,6.013 L91.6758,6.013 L91.6758,4.011 L101.4218,4.011 L101.4218,21.837 L101.5278,21.837 C102.4048,20.657 103.5178,19.779 104.9068,19.214 C106.3048,18.647 107.8068,18.367 109.4458,18.367 C111.1568,18.367 112.7208,18.629 114.1428,19.163 C115.5708,19.697 116.8048,20.453 117.8498,21.424 C118.8908,22.401 119.7098,23.583 120.2838,24.966 C120.8638,26.353 121.1568,27.879 121.1568,29.566 C121.1568,31.356 120.8398,32.953 120.1938,34.37 C119.5588,35.782 118.7018,36.987 117.6178,37.969 C116.5358,38.952 115.2698,39.711 113.8378,40.249 C112.3988,40.78 110.8848,41.049 109.2968,41.049 C107.6998,41.049 106.2308,40.752 104.8868,40.157 C103.5398,39.565 102.4168,38.622 101.5278,37.323 L101.3518,37.323 L100.2368,40.342 Z" id="Fill-7"></path>
                <path d="M140.4437,30.0454 C138.4457,30.0944 136.8287,30.2274 135.6137,30.4574 C134.3717,30.6794 133.4297,30.9974 132.7447,31.4024 C132.0647,31.8164 131.6037,32.3134 131.3657,32.9004 C131.1217,33.4714 131.0077,34.1374 131.0077,34.8874 C131.0077,36.1924 131.3067,37.1664 131.9067,37.8034 C132.5007,38.4474 133.3207,38.7684 134.3717,38.7684 C134.9337,38.7684 135.5727,38.6614 136.2737,38.4444 C136.9827,38.2254 137.6527,37.8734 138.2677,37.3794 C138.9027,36.8914 139.4107,36.2384 139.8187,35.4454 C140.2327,34.6414 140.4437,33.6504 140.4437,32.4694 L140.4437,30.0454 Z M149.2797,40.3424 C148.5047,40.4774 147.7877,40.5624 147.1307,40.5964 C146.4727,40.6294 145.9517,40.6494 145.5627,40.6494 C144.5867,40.6494 143.7957,40.5724 143.1507,40.4364 C142.5237,40.2954 142.0217,40.0844 141.6587,39.8174 C141.2857,39.5484 141.0257,39.2254 140.8597,38.8464 C140.6917,38.4614 140.5867,38.0334 140.5547,37.5684 L140.4147,37.5684 C139.9027,38.2194 139.3537,38.7684 138.7677,39.2174 C138.1777,39.6704 137.5687,40.0314 136.9297,40.2954 C136.2817,40.5624 135.6317,40.7584 134.9637,40.8734 C134.2857,40.9884 133.6017,41.0494 132.9417,41.0494 C131.8127,41.0494 130.8207,40.9074 129.9417,40.6294 C129.0527,40.3584 128.3147,39.9714 127.7167,39.4674 C127.1037,38.9714 126.6467,38.3784 126.3327,37.6784 C126.0137,36.9864 125.8617,36.2324 125.8617,35.3974 C125.8617,33.0764 127.1197,31.3154 129.6177,30.1064 C132.1237,28.8904 135.7247,28.2524 140.4437,28.1644 C140.4597,27.4164 140.4707,26.7394 140.4887,26.1394 C140.4967,25.5374 140.4967,24.9504 140.4967,24.3594 C140.4967,22.8444 140.1567,21.7904 139.4617,21.1804 C138.7857,20.5624 137.6877,20.2634 136.2117,20.2634 C135.2187,20.2634 134.3367,20.3624 133.5507,20.5624 C132.7717,20.7664 132.1327,21.0334 131.6467,21.3684 C132.0827,21.7424 132.4087,22.1544 132.6197,22.5754 C132.8307,23.0014 132.9417,23.4244 132.9417,23.8424 C132.9417,24.5394 132.6917,25.1234 132.1957,25.5904 C131.6977,26.0554 131.0197,26.2954 130.1487,26.2954 C129.7917,26.2954 129.4377,26.2384 129.0827,26.1394 C128.7327,26.0414 128.4337,25.8894 128.1797,25.6694 C127.9167,25.4514 127.7167,25.1774 127.5507,24.8544 C127.4087,24.5304 127.3247,24.1464 127.3247,23.7134 C127.3247,23.0344 127.5357,22.3664 127.9397,21.7294 C128.3477,21.0824 128.9647,20.5184 129.7917,20.0154 C130.6037,19.5114 131.6217,19.1124 132.8397,18.8094 C134.0547,18.5154 135.4827,18.3674 137.1157,18.3674 C138.4317,18.3674 139.6097,18.4864 140.6257,18.7124 C141.6427,18.9484 142.5077,19.3374 143.2077,19.8804 C143.9127,20.4194 144.4497,21.1424 144.8027,22.0394 C145.1687,22.9354 145.3417,24.0584 145.3417,25.3934 C145.3417,25.7224 145.3417,26.2684 145.3367,27.0314 C145.3267,27.7874 145.2977,28.6274 145.2897,29.5424 C145.2697,30.4574 145.2617,31.3894 145.2487,32.3264 C145.2327,33.2724 145.2307,34.1004 145.2307,34.8154 C145.2307,35.5544 145.2487,36.1664 145.2897,36.6584 C145.3267,37.1494 145.4167,37.5444 145.5627,37.8354 C145.7037,38.1264 145.9297,38.3324 146.2227,38.4554 C146.5117,38.5844 146.9237,38.6474 147.4557,38.6474 C147.9147,38.6474 148.5237,38.5924 149.2797,38.4974 L149.2797,40.3424 Z" id="Fill-9"></path>
                <polygon id="Fill-11" points="32.9008 3.55271368e-15 32.1198 9.738 33.7078 9.738 37.1958 3.55271368e-15"></polygon>
                <path d="M21.6283,52.2495 C21.6283,52.3945 21.6423,52.5515 21.6833,52.6835 C21.8883,53.4195 22.6243,53.9255 23.4683,53.9255 C24.7353,53.9255 25.4723,53.0095 25.4723,51.6715 C25.4723,50.5015 24.7903,49.5015 23.5233,49.5015 C22.7063,49.5015 21.9293,50.0075 21.6963,50.8155 C21.6693,50.9475 21.6283,51.1045 21.6283,51.2375 L21.6283,52.2495 Z M20.4313,50.6945 C20.4313,49.9465 20.4173,49.3455 20.3763,48.7905 L21.4523,48.7905 L21.5213,49.7905 L21.5483,49.7905 C22.0243,49.0675 22.8143,48.6575 23.8783,48.6575 C25.4853,48.6575 26.6853,49.8515 26.6853,51.6225 C26.6853,53.7205 25.2263,54.7575 23.6873,54.7575 C22.8003,54.7575 22.0523,54.4195 21.6553,53.8415 L21.6283,53.8415 L21.6283,57.0115 L20.4313,57.0115 L20.4313,50.6945 Z" id="Fill-13"></path>
                <path d="M36.0447,54.6243 L37.2417,54.6243 L37.2417,48.7903 L36.0447,48.7903 L36.0447,54.6243 Z M36.6167,47.8023 C36.1787,47.8023 35.8937,47.5003 35.8937,47.1513 C35.8937,46.7773 36.1927,46.4883 36.6437,46.4883 C37.0797,46.4883 37.3787,46.7773 37.3787,47.1513 C37.3787,47.5003 37.0927,47.8023 36.6307,47.8023 L36.6167,47.8023 Z" id="Fill-15"></path>
                <path d="M51.2748,51.1402 C51.2888,50.4662 50.9628,49.4172 49.6268,49.4172 C48.3998,49.4172 47.8818,50.4062 47.7868,51.1402 L51.2748,51.1402 Z M47.7728,51.9002 C47.7998,53.3232 48.8238,53.9132 50.0208,53.9132 C50.8798,53.9132 51.4118,53.7812 51.8468,53.6122 L52.0658,54.3712 C51.6438,54.5402 50.9078,54.7452 49.8588,54.7452 C47.8408,54.7452 46.6148,53.5522 46.6148,51.8042 C46.6148,50.0442 47.7998,48.6572 49.7218,48.6572 C51.8748,48.6572 52.4328,50.3332 52.4328,51.4062 C52.4328,51.6222 52.4198,51.7802 52.3918,51.9002 L47.7728,51.9002 Z" id="Fill-17"></path>
                <path d="M66.2748,51.1655 C66.2748,51.0195 66.2608,50.8515 66.2198,50.7065 C66.0448,50.0445 65.3898,49.4895 64.4898,49.4895 C63.2518,49.4895 62.5148,50.4535 62.5148,51.7315 C62.5148,52.9255 63.1828,53.9015 64.4628,53.9015 C65.2668,53.9015 66.0038,53.4195 66.2198,52.6235 C66.2608,52.4905 66.2748,52.3465 66.2748,52.1775 L66.2748,51.1655 Z M67.4738,46.0655 L67.4738,53.1175 C67.4738,53.6365 67.4878,54.2265 67.5288,54.6245 L66.4528,54.6245 L66.3978,53.6115 L66.3708,53.6115 C66.0038,54.2635 65.2128,54.7575 64.1358,54.7575 C62.5428,54.7575 61.3018,53.5635 61.3018,51.7915 C61.2888,49.8395 62.6658,48.6575 64.2588,48.6575 C65.2808,48.6575 65.9628,49.0795 66.2478,49.5375 L66.2748,49.5375 L66.2748,46.0655 L67.4738,46.0655 Z" id="Fill-18"></path>
                <path d="M77.3236,50.3687 C77.3236,49.7547 77.2966,49.2727 77.2686,48.7907 L78.3176,48.7907 L78.3726,49.7297 L78.4136,49.7297 C78.7826,49.1757 79.3936,48.6577 80.4996,48.6577 C81.3846,48.6577 82.0656,49.1397 82.3506,49.8267 L82.3786,49.8267 C82.5836,49.4897 82.8566,49.2477 83.1286,49.0677 C83.5226,48.8027 83.9466,48.6577 84.5736,48.6577 C85.4586,48.6577 86.7536,49.1637 86.7536,51.1887 L86.7536,54.6247 L85.5816,54.6247 L85.5816,51.3217 C85.5816,50.1887 85.1046,49.5247 84.1496,49.5247 C83.4546,49.5247 82.9366,49.9727 82.7196,50.4777 C82.6656,50.6347 82.6246,50.8277 82.6246,51.0087 L82.6246,54.6247 L81.4526,54.6247 L81.4526,51.1167 C81.4526,50.1887 80.9896,49.5247 80.0756,49.5247 C79.3416,49.5247 78.7826,50.0567 78.5916,50.5867 C78.5226,50.7437 78.4956,50.9237 78.4956,51.1047 L78.4956,54.6247 L77.3236,54.6247 L77.3236,50.3687 Z" id="Fill-19"></path>
                <path d="M99.2865,53.9614 C100.4315,53.9614 101.2885,53.0094 101.2885,51.6834 C101.2885,50.6944 100.7295,49.4524 99.3135,49.4524 C97.9095,49.4524 97.2965,50.6104 97.2965,51.7194 C97.2965,52.9974 98.1145,53.9614 99.2725,53.9614 L99.2865,53.9614 Z M99.2315,54.7574 C97.4605,54.7574 96.0695,53.6004 96.0695,51.7554 C96.0695,49.8024 97.5285,48.6574 99.3415,48.6574 C101.2335,48.6574 102.5155,49.8744 102.5155,51.6474 C102.5155,53.8164 100.8115,54.7574 99.2455,54.7574 L99.2315,54.7574 Z" id="Fill-20"></path>
                <path d="M111.8881,50.3687 C111.8881,49.7547 111.8741,49.2727 111.8331,48.7907 L112.8961,48.7907 L112.9641,49.7427 L112.9921,49.7427 C113.3201,49.2007 114.0811,48.6577 115.1711,48.6577 C116.0851,48.6577 117.5011,49.1397 117.5011,51.1397 L117.5011,54.6247 L116.3021,54.6247 L116.3021,51.2607 C116.3021,50.3217 115.9081,49.5247 114.7771,49.5247 C113.9991,49.5247 113.3861,50.0187 113.1691,50.6107 C113.1151,50.7437 113.0871,50.9357 113.0871,51.1047 L113.0871,54.6247 L111.8881,54.6247 L111.8881,50.3687 Z" id="Fill-21"></path>
                <path d="M128.7006,47.3921 L128.7006,48.7901 L130.4176,48.7901 L130.4176,49.5971 L128.7006,49.5971 L128.7006,52.7321 C128.7006,53.4541 128.9326,53.8651 129.6006,53.8651 C129.9276,53.8651 130.1186,53.8411 130.2946,53.7921 L130.3486,54.6011 C130.1186,54.6731 129.7496,54.7461 129.2866,54.7461 C128.7276,54.7461 128.2786,54.5761 127.9916,54.2981 C127.6656,53.9741 127.5286,53.4541 127.5286,52.7681 L127.5286,49.5971 L126.5076,49.5971 L126.5076,48.7901 L127.5286,48.7901 L127.5286,47.7171 L128.7006,47.3921 Z" id="Fill-22"></path>
            </g>
        </g>
    </g>
</svg>