<?xml version="1.0" encoding="utf-8"?><svg version="1.1" xmlns="http://www.w3.org/2000/svg" xmlns:xlink="http://www.w3.org/1999/xlink" x="0px" y="0px" viewBox="0 0 86 86" width="86px" height="86px" xml:space="preserve"><style type="text/css">.st0{fill:#CCCCCC;}.st1{fill:#0073E9;}.st2{fill:#888888;}</style>
<path class="st0" d="M1,1v16h20V1H1z M11,9.9L4.5,3h13.4L11,9.9z M7.6,9L3,13.7V4.2L7.6,9z M9.1,10.3l1.8,2l0.2-0.1l0,0.1l2-2.2 l4.8,5H4.3L9.1,10.3z M14.5,8.7L19,4.2v9.4L14.5,8.7z"/>
<path class="st0" d="M40,8V6.7C40,3.5,37.8,1,34.7,1h-5.3C26.2,1,24,3.5,24,6.7V8h-2v13h20V8H40z M26,6.7c0-2,1.3-3.7,3.3-3.7h5.3 c2,0,3.3,1.6,3.3,3.7V8H26V6.7z M40,19H24v-9h16V19z"/>
<path class="st0" d="M31,15.1V17h2v-1.9c0.6-0.3,1-1,1-1.7c0-1.1-0.9-2-2-2c-1.1,0-2,0.9-2,2C30,14.1,30.4,14.7,31,15.1z"/>
<path class="st0" d="M61,8V6.7C61,3.5,58.8,1,55.7,1h-5.3C47.2,1,45,3.5,45,6.7V8h-2v13h20V8H61z M47,6.7c0-2,1.3-3.7,3.3-3.7h5.3 c2,0,3.3,1.6,3.3,3.7V8H47V6.7z M45,19v-9h16v9H45z"/>
<polygon class="st0" points="55.3,11.6 52.3,14.6 50.9,13.2 49.5,14.6 52.4,17.4 53.1,16.7 56.7,13"/>
<path class="st0" d="M14.9,34.1c1.7-1.2,2.8-3.2,2.8-5.4c0-3.7-3-6.7-6.7-6.7s-6.7,3-6.7,6.7c0,2.2,1.1,4.2,2.7,5.4 C3.7,34.5,1,37.4,1,41v1h20v-1C21,37.4,18.4,34.5,14.9,34.1z M11.1,24c2.6,0,4.7,2.1,4.7,4.7s-2.1,4.7-4.7,4.7s-4.7-2.1-4.7-4.7 S8.5,24,11.1,24z M3.2,40c0.5-2,2.5-4,4.9-4h6c2.4,0,4.4,2,4.9,4H3.2z"/>
<path class="st0" d="M22,22v20h16V22H22z M36,24v12H24V24H36z M29.1,39c0-0.6,0.4-1,1-1c0.6,0,1,0.4,1,1s-0.4,1-1,1 C29.6,40,29.1,39.6,29.1,39z"/>
<polygon class="st1" points="84.5,3.8 81.7,1 72.4,10.4 67.3,5.3 64.5,8.1 72.4,16 75.2,13.2 75.2,13.2"/>
<path class="st2" d="M5,47v30h62V47H5z M65,75H7V49h58V75z"/>
<polygon class="st2" points="63,43 1,43 1,45 1,73 3,73 3,45 63,45"/>
<rect x="9" y="51" class="st2" width="8" height="1" /><rect x="51" y="72" class="st2" width="12" height="1" /></svg>